<svg width="90" height="89" viewBox="0 0 90 89" fill="none" xmlns="http://www.w3.org/2000/svg">
<path d="M12.0906 14.7951C11.0095 15.9445 12.135 16.8947 13.2611 15.7894L15.529 13.5635C16.6518 12.4615 15.7219 11.319 14.556 12.3753L12.0906 14.7951Z" fill="#FFF846"/>
<path d="M1.72846 33.2414C1.52025 34.0198 2.43771 34.5309 3.01277 33.9665L34.0513 3.50274C34.6292 2.93552 34.1267 2.00498 33.3425 2.20712C33.2045 2.24271 33.0785 2.31427 32.9768 2.41414L1.94456 32.8717C1.84083 32.9735 1.76601 33.101 1.72846 33.2414Z" fill="#FFF846"/>
<path d="M0.226414 44.5333C0.226414 44.6362 0.35036 44.6882 0.423799 44.6162L44.936 0.938081C45.0096 0.865861 44.9585 0.740738 44.8554 0.740738C44.7317 0.740738 44.6084 0.741444 44.4855 0.742722C43.4807 0.753169 42.5251 1.17103 41.808 1.8749L1.39551 41.539C0.676277 42.2449 0.238844 43.1961 0.228183 44.2038C0.227021 44.3137 0.226414 44.4235 0.226414 44.5333Z" fill="#FFF846"/>
<path d="M0.681915 50.7947C0.771346 51.417 1.52792 51.6609 1.97658 51.2205L51.6264 2.49016C52.0812 2.04377 51.8377 1.27233 51.2064 1.18527C50.9693 1.15256 50.7331 1.23361 50.5622 1.40128L0.907692 50.1363C0.732161 50.3086 0.646927 50.5513 0.681915 50.7947Z" fill="#FFF846"/>
<path d="M2.231 57.5394C2.40284 58.0819 3.08221 58.244 3.48831 57.8454L58.3786 3.97162C58.7956 3.56235 58.6349 2.86187 58.0748 2.69572C57.8035 2.61525 57.5104 2.69036 57.3085 2.8886L2.4259 56.7548C2.2186 56.9583 2.14327 57.2625 2.231 57.5394Z" fill="#FFF846"/>
<path d="M4.60465 63.4676C4.83304 63.939 5.45194 64.0367 5.82577 63.6698L64.3213 6.2575C64.7025 5.88338 64.6007 5.24487 64.1178 5.01662C63.827 4.87916 63.4809 4.93908 63.2514 5.16437L4.76183 62.5708C4.52282 62.8054 4.45863 63.1662 4.60465 63.4676Z" fill="#FFF846"/>
<path d="M7.6529 68.7287C7.92246 69.1266 8.48669 69.1766 8.82969 68.84L69.5963 9.19872C69.9474 8.8541 69.8964 8.27335 69.4842 8.00479C69.1817 7.80776 68.7845 7.85225 68.5269 8.10508L7.7562 67.7504C7.49109 68.0106 7.44457 68.4212 7.6529 68.7287Z" fill="#FFF846"/>
<path d="M11.3045 73.4118C11.594 73.7361 12.0967 73.752 12.407 73.4475L74.2799 12.7204C74.6001 12.4061 74.5869 11.8852 74.2474 11.5919C73.9479 11.3332 73.5009 11.3516 73.2184 11.6289L11.3425 72.359C11.0511 72.6449 11.0327 73.1073 11.3045 73.4118Z" fill="#FFF846"/>
<path d="M15.5188 77.5371C15.8198 77.795 16.2689 77.7756 16.5518 77.4979L78.4195 16.7759C78.7113 16.4895 78.7309 16.0252 78.4598 15.7192C78.1683 15.3903 77.6614 15.3767 77.3478 15.6846L15.4875 76.3993C15.1639 76.7169 15.1745 77.242 15.5188 77.5371Z" fill="#FFF846"/>
<path d="M20.2919 81.1052C20.5908 81.2989 20.9842 81.2563 21.2384 81.0067L81.9948 21.3755C82.2598 21.1153 82.3064 20.7048 82.098 20.3973C81.8285 19.9994 81.2642 19.9493 80.9213 20.286L20.1766 79.9154C19.8266 80.259 19.8802 80.8385 20.2919 81.1052Z" fill="#FFF846"/>
<path d="M25.6658 84.0835C25.9568 84.2182 26.2997 84.1577 26.5286 83.933L84.969 26.5749C85.208 26.3403 85.2722 25.9795 85.1261 25.6781C84.8978 25.2067 84.2789 25.109 83.9051 25.4759L25.4543 82.8443C25.0723 83.2192 25.18 83.8587 25.6658 84.0835Z" fill="#FFF846"/>
<path d="M31.7164 86.4006C31.9877 86.4811 32.2807 86.4059 32.4827 86.2077L87.3095 32.3962C87.5146 32.1949 87.5923 31.8964 87.5062 31.6224C87.3346 31.0766 86.6461 30.914 86.2378 31.3147L31.4126 85.1247C30.9956 85.534 31.1562 86.2344 31.7164 86.4006Z" fill="#FFF846"/>
<path d="M38.6008 87.9013C38.8388 87.9337 39.0785 87.8525 39.2499 87.6843L88.8122 39.0399C88.9883 38.867 89.0737 38.6207 89.0389 38.3764C88.9499 37.7504 88.1893 37.508 87.7381 37.9509L38.1811 86.5901C37.7237 87.0391 37.9657 87.8146 38.6008 87.9013Z" fill="#FFF846"/>
<path d="M44.8554 88.3358C45.0294 88.3358 45.2028 88.3346 45.3755 88.3322C46.3627 88.3189 47.2979 87.9039 48.0025 87.2123L88.3005 47.6606C89.0225 46.952 89.4589 45.9963 89.4714 44.9847C89.4733 44.8375 89.4742 44.6904 89.4742 44.5432C89.4742 44.4807 89.399 44.4492 89.3544 44.4929L44.8066 88.2157C44.7702 88.2514 44.8044 88.3358 44.8554 88.3358Z" fill="#FFF846"/>
<path d="M56.5262 86.8103C56.6599 86.7746 56.7814 86.7046 56.8802 86.6077L87.7206 56.3385C87.8212 56.2396 87.8944 56.1167 87.932 55.9807C88.1457 55.208 87.2249 54.6916 86.6527 55.2532L55.8151 85.5198C55.2402 86.084 55.7478 87.0178 56.5262 86.8103Z" fill="#FFF846"/>
<path d="M76.5081 75.3923C77.7412 74.1735 76.6172 73.2115 75.3797 74.426C74.1408 75.642 75.0838 76.7849 76.3255 75.5717C76.3866 75.5121 76.4474 75.4523 76.5081 75.3923Z" fill="#FFF846"/>
</svg>
