<svg width="24" height="24" viewBox="0 0 24 24" fill="none" xmlns="http://www.w3.org/2000/svg">
<path d="M12.8484 2.75161C12.6234 2.52665 12.3182 2.40027 12 2.40027C11.6818 2.40027 11.3766 2.52665 11.1516 2.75161L2.7516 11.1516C2.53301 11.3779 2.41206 11.6811 2.41479 11.9957C2.41753 12.3103 2.54373 12.6113 2.76622 12.8338C2.98871 13.0563 3.28969 13.1825 3.60432 13.1852C3.91896 13.188 4.22208 13.067 4.4484 12.8484L4.8 12.4968V20.4C4.8 20.7183 4.92643 21.0235 5.15148 21.2485C5.37652 21.4736 5.68174 21.6 6 21.6H8.4C8.71826 21.6 9.02349 21.4736 9.24853 21.2485C9.47357 21.0235 9.6 20.7183 9.6 20.4V18C9.6 17.6818 9.72643 17.3765 9.95148 17.1515C10.1765 16.9264 10.4817 16.8 10.8 16.8H13.2C13.5183 16.8 13.8235 16.9264 14.0485 17.1515C14.2736 17.3765 14.4 17.6818 14.4 18V20.4C14.4 20.7183 14.5264 21.0235 14.7515 21.2485C14.9765 21.4736 15.2817 21.6 15.6 21.6H18C18.3183 21.6 18.6235 21.4736 18.8485 21.2485C19.0736 21.0235 19.2 20.7183 19.2 20.4V12.4968L19.5516 12.8484C19.7779 13.067 20.081 13.188 20.3957 13.1852C20.7103 13.1825 21.0113 13.0563 21.2338 12.8338C21.4563 12.6113 21.5825 12.3103 21.5852 11.9957C21.5879 11.6811 21.467 11.3779 21.2484 11.1516L12.8484 2.75161Z" fill="white"/>
</svg>
