<svg width="17" height="19" viewBox="0 0 17 19" fill="none" xmlns="http://www.w3.org/2000/svg">
<path fill-rule="evenodd" clip-rule="evenodd" d="M8.5 7.80001C9.45478 7.80001 10.3705 7.42072 11.0456 6.74559C11.7207 6.07046 12.1 5.15479 12.1 4.20001C12.1 3.24523 11.7207 2.32955 11.0456 1.65442C10.3705 0.979291 9.45478 0.600006 8.5 0.600006C7.54522 0.600006 6.62955 0.979291 5.95441 1.65442C5.27928 2.32955 4.9 3.24523 4.9 4.20001C4.9 5.15479 5.27928 6.07046 5.95441 6.74559C6.62955 7.42072 7.54522 7.80001 8.5 7.80001V7.80001ZM0.0999985 18.6C0.0999985 17.4969 0.317271 16.4046 0.739411 15.3855C1.16155 14.3663 1.78029 13.4403 2.5603 12.6603C3.34031 11.8803 4.26632 11.2616 5.28546 10.8394C6.30459 10.4173 7.3969 10.2 8.5 10.2C9.6031 10.2 10.6954 10.4173 11.7145 10.8394C12.7337 11.2616 13.6597 11.8803 14.4397 12.6603C15.2197 13.4403 15.8384 14.3663 16.2606 15.3855C16.6827 16.4046 16.9 17.4969 16.9 18.6H0.0999985Z" fill="#8B8C8C"/>
</svg>
